<?xml version="1.0" encoding="UTF-8" standalone="no"?>
<!-- Created with Inkscape (http://www.inkscape.org/) -->

<svg
   xmlns:dc="http://purl.org/dc/elements/1.1/"
   xmlns:cc="http://creativecommons.org/ns#"
   xmlns:rdf="http://www.w3.org/1999/02/22-rdf-syntax-ns#"
   xmlns:svg="http://www.w3.org/2000/svg"
   xmlns="http://www.w3.org/2000/svg"
   xmlns:xlink="http://www.w3.org/1999/xlink"
   xmlns:sodipodi="http://sodipodi.sourceforge.net/DTD/sodipodi-0.dtd"
   xmlns:inkscape="http://www.inkscape.org/namespaces/inkscape"
   width="75.431999mm"
   height="81.625mm"
   viewBox="0 0 75.431999 81.625"
   version="1.1"
   id="svg4830"
   inkscape:version="0.92.1 r15371"
   sodipodi:docname="jubar-logo-novo.svg"
   inkscape:export-filename="/home/alexjr/Pictures/jubar/jubar-logo-novo.png"
   inkscape:export-xdpi="96"
   inkscape:export-ydpi="96">
  <defs
     id="defs4824">
    <linearGradient
       id="linearGradient1697"
       inkscape:collect="always">
      <stop
         id="stop1693"
         offset="0"
         style="stop-color:#ff670c;stop-opacity:1;" />
      <stop
         id="stop1695"
         offset="1"
         style="stop-color:#faffff;stop-opacity:1" />
    </linearGradient>
    <linearGradient
       gradientUnits="userSpaceOnUse"
       y2="88.86615"
       x2="74.467957"
       y1="89.396347"
       x1="49.228584"
       id="linearGradient1699"
       xlink:href="#linearGradient1697"
       inkscape:collect="always" />
  </defs>
  <sodipodi:namedview
     id="base"
     pagecolor="#ffffff"
     bordercolor="#666666"
     borderopacity="1.0"
     inkscape:pageopacity="0.0"
     inkscape:pageshadow="2"
     inkscape:zoom="2.8"
     inkscape:cx="75.50419"
     inkscape:cy="44.839129"
     inkscape:document-units="mm"
     inkscape:current-layer="layer1"
     showgrid="false"
     inkscape:window-width="1366"
     inkscape:window-height="685"
     inkscape:window-x="0"
     inkscape:window-y="0"
     inkscape:window-maximized="1" />
  <metadata
     id="metadata4827">
    <rdf:RDF>
      <cc:Work
         rdf:about="">
        <dc:format>image/svg+xml</dc:format>
        <dc:type
           rdf:resource="http://purl.org/dc/dcmitype/StillImage" />
        <dc:title />
      </cc:Work>
    </rdf:RDF>
  </metadata>
  <g
     inkscape:label="Camada 1"
     inkscape:groupmode="layer"
     id="layer1"
     transform="translate(0,-215.375)">
    <g
       id="g6307"
       transform="translate(-8.468988e-8,-6.292397)"
       style="fill:#ffffffff;fill-opacity:1">
      <g
         id="g6292"
         style="fill:#ffffffff;fill-opacity:1">
        <g
           id="g6268"
           transform="matrix(0.62890647,0,0,0.62890647,41.624914,22.810335)"
           style="fill:#ffffffff;fill-opacity:1">
          <text
             id="text6246"
             y="344.625"
             x="17.601732"
             style="font-style:normal;font-variant:normal;font-weight:normal;font-stretch:normal;font-size:10.58333302px;line-height:1.25;font-family:Roboto;-inkscape-font-specification:'Roboto, Normal';font-variant-ligatures:normal;font-variant-caps:normal;font-variant-numeric:normal;font-feature-settings:normal;text-align:start;letter-spacing:0px;word-spacing:0px;writing-mode:lr-tb;text-anchor:start;fill:#ffffffff;fill-opacity:1;stroke:none;stroke-width:0.26458332"
             xml:space="preserve"><tspan
               style="font-style:normal;font-variant:normal;font-weight:normal;font-stretch:normal;font-size:10.58333302px;font-family:Roboto;-inkscape-font-specification:'Roboto, Normal';font-variant-ligatures:normal;font-variant-caps:normal;font-variant-numeric:normal;font-feature-settings:normal;text-align:start;writing-mode:lr-tb;text-anchor:start;stroke-width:0.26458332;fill:#ffffffff;fill-opacity:1"
               y="344.625"
               x="17.601732"
               id="tspan6244"
               sodipodi:role="line">U</tspan></text>
          <text
             id="text6250"
             y="360.1582"
             x="17.798101"
             style="font-style:normal;font-variant:normal;font-weight:normal;font-stretch:normal;font-size:10.58333302px;line-height:1.25;font-family:Roboto;-inkscape-font-specification:'Roboto, Normal';font-variant-ligatures:normal;font-variant-caps:normal;font-variant-numeric:normal;font-feature-settings:normal;text-align:start;letter-spacing:0px;word-spacing:0px;writing-mode:lr-tb;text-anchor:start;fill:#ffffffff;fill-opacity:1;stroke:none;stroke-width:0.26458332"
             xml:space="preserve"><tspan
               style="font-style:normal;font-variant:normal;font-weight:normal;font-stretch:normal;font-size:10.58333302px;font-family:Roboto;-inkscape-font-specification:'Roboto, Normal';font-variant-ligatures:normal;font-variant-caps:normal;font-variant-numeric:normal;font-feature-settings:normal;text-align:start;writing-mode:lr-tb;text-anchor:start;stroke-width:0.26458332;fill:#ffffffff;fill-opacity:1"
               y="360.1582"
               x="17.798101"
               id="tspan6248"
               sodipodi:role="line">B</tspan></text>
          <text
             id="text6254"
             y="375.63715"
             x="17.839443"
             style="font-style:normal;font-weight:normal;font-size:10.58333302px;line-height:1.25;font-family:sans-serif;letter-spacing:0px;word-spacing:0px;fill:#ffffffff;fill-opacity:1;stroke:none;stroke-width:0.26458332"
             xml:space="preserve"><tspan
               style="font-style:normal;font-variant:normal;font-weight:normal;font-stretch:normal;font-size:10.58333302px;font-family:Roboto;-inkscape-font-specification:'Roboto, Normal';font-variant-ligatures:normal;font-variant-caps:normal;font-variant-numeric:normal;font-feature-settings:normal;text-align:start;writing-mode:lr-tb;text-anchor:start;stroke-width:0.26458332;fill:#ffffffff;fill-opacity:1"
               y="375.63715"
               x="17.839443"
               id="tspan6252"
               sodipodi:role="line">A</tspan></text>
          <text
             id="text6258"
             y="391.11609"
             x="17.69475"
             style="font-style:normal;font-weight:normal;font-size:10.58333302px;line-height:1.25;font-family:sans-serif;letter-spacing:0px;word-spacing:0px;fill:#ffffffff;fill-opacity:1;stroke:none;stroke-width:0.26458332"
             xml:space="preserve"><tspan
               style="font-style:normal;font-variant:normal;font-weight:normal;font-stretch:normal;font-size:10.58333302px;font-family:Roboto;-inkscape-font-specification:'Roboto, Normal';font-variant-ligatures:normal;font-variant-caps:normal;font-variant-numeric:normal;font-feature-settings:normal;text-align:start;writing-mode:lr-tb;text-anchor:start;stroke-width:0.26458332;fill:#ffffffff;fill-opacity:1"
               y="391.11609"
               x="17.69475"
               id="tspan6256"
               sodipodi:role="line">R</tspan></text>
        </g>
        <path
           inkscape:connector-curvature="0"
           id="path5428"
           d="m 34.384477,296.84 c -4.495153,-0.42152 -9.618466,-1.86319 -13.414186,-3.77468 -9.90706,-4.98912 -17.2850505,-14.16213 -19.8360905,-24.66208 -1.29608001,-5.33462 -1.48876001,-10.2337 -0.60515001,-15.3863 1.76797001,-10.30946 7.50635001,-19.15556 16.24476051,-25.0424 5.77904,-3.89319 13.521532,-6.3073 20.22866,-6.3073 h 1.700006 v 2.96333 2.96333 H 36.81921 c -5.678411,0 -11.861529,1.96238 -16.858979,5.35066 -7.55424,5.12177 -12.4301805,12.96637 -13.6968105,22.03592 -0.41114,2.94395 -0.25856,7.86493 0.32956,10.62876 2.402,11.28798 10.3905005,20.24514 21.1989435,23.76946 3.79646,1.23791 5.345713,1.46198 10.063887,1.45554 3.676424,-0.005 4.351055,-0.0497 5.926666,-0.39264 12.834788,-2.79342 22.349504,-12.17046 24.978012,-24.61659 0.652988,-3.09193 0.866153,-6.07806 0.630165,-8.82765 -0.629395,-7.33333 -3.346924,-13.68298 -8.152616,-19.04901 -1.464774,-1.63557 -4.321505,-4.06682 -6.064577,-5.16133 l -1.393683,-0.87512 -0.0033,-3.34433 c -0.0018,-1.83938 0.05558,-3.34433 0.127579,-3.34433 0.211621,0 3.678319,1.96215 4.825636,2.73131 9.246434,6.1988 15.412796,16.53403 16.541289,27.72429 0.961483,9.53416 -2.095961,19.6784 -8.225318,27.29066 -5.834029,7.24548 -14.800166,12.34546 -23.947145,13.62124 -2.434283,0.33953 -6.508587,0.45607 -8.714025,0.24926 z M 21.091811,268.92334 v -4.22123 l 7.747003,-0.0656 c 6.664616,-0.0564 7.888949,-0.10605 8.762997,-0.35509 1.528805,-0.43559 2.4766,-0.98232 3.084428,-1.77924 1.058572,-1.38788 1.063221,-1.4407 1.073997,-12.20601 0.0054,-5.36155 0.07281,-10.05307 0.14986,-10.4256 0.07706,-0.37253 0.148864,-0.51038 0.159575,-0.30633 0.01072,0.20406 0.09567,0.4181 0.188806,0.47566 0.09313,0.0576 0.169334,0.56186 0.169334,1.12066 0,0.63421 0.06363,0.97667 0.169333,0.91134 0.09313,-0.0576 0.169333,-0.0303 0.169333,0.0606 0,0.0909 -0.09525,0.20386 -0.211666,0.2511 -0.161185,0.0654 -0.153386,0.12645 0.0327,0.25598 0.197598,0.13754 0.206395,0.25345 0.04596,0.60556 -0.131899,0.28949 -0.139037,0.43546 -0.02129,0.43546 0.103532,0 0.129662,0.14951 0.06289,0.35987 -0.08201,0.25841 -0.05624,0.32405 0.0914,0.2328 0.150216,-0.0928 0.172788,-0.0187 0.08378,0.27512 -0.06701,0.22122 -0.189475,0.4746 -0.27214,0.56308 -0.08267,0.0885 -0.147879,0.43137 -0.144918,0.762 0.0048,0.53609 0.02972,0.56907 0.230336,0.3048 0.123722,-0.16299 0.311799,-0.29634 0.417947,-0.29634 0.10615,0 0.20095,-0.20955 0.210668,-0.46566 0.0097,-0.25612 0.04837,-0.77047 0.0859,-1.143 0.03753,-0.37254 0.06655,-0.79164 0.0645,-0.93134 -0.002,-0.1397 0.0092,-0.4445 0.02505,-0.67733 0.04638,-0.68205 0.0066,-1.39428 -0.115842,-2.07433 -0.07144,-0.39676 -0.0489,-0.635 0.06007,-0.635 0.259583,0 0.439038,-1.01535 0.218444,-1.23594 -0.238606,-0.23861 -0.242611,-0.79606 -0.0057,-0.79606 0.113968,0 0.131594,-0.14077 0.04771,-0.381 -0.07317,-0.20955 -0.148607,-0.9906 -0.167638,-1.73567 -0.01903,-0.74507 -0.06121,-1.95019 -0.09372,-2.67804 -0.03252,-0.72785 -0.03206,-1.2422 10e-4,-1.143 0.03307,0.0992 0.135109,0.18037 0.226758,0.18037 0.09165,0 0.124533,-0.13335 0.07308,-0.29633 -0.05146,-0.16298 -0.105927,-0.67733 -0.121043,-1.143 -0.01512,-0.46567 -0.08954,-1.01542 -0.165381,-1.22167 -0.07989,-0.21726 -0.06939,-0.41735 0.02496,-0.47566 0.08956,-0.0554 0.162851,-0.24856 0.162851,-0.42933 0,-0.18911 0.11565,-0.32867 0.272357,-0.32867 0.203478,0 0.246374,-0.10353 0.169617,-0.40935 -0.05651,-0.22515 -0.03452,-0.5871 0.04887,-0.80434 l 0.151611,-0.39498 0.186773,0.47669 c 0.102724,0.26218 0.186771,0.75846 0.186771,1.10285 0,0.48693 -0.08471,0.66332 -0.381,0.79331 -0.418118,0.18343 -0.40267,-0.0627 -0.207073,3.29982 0.05688,0.9779 0.09047,2.0066 0.07465,2.286 -0.03633,0.6414 -0.03615,0.64473 0.102519,1.86266 0.06362,0.5588 0.107855,1.397 0.09829,1.86267 -0.01339,0.65234 0.02242,0.77865 0.156029,0.55033 0.212496,-0.36312 0.495251,-0.38729 0.495251,-0.0423 0,0.37362 0.355891,0.30938 0.458437,-0.0828 0.04844,-0.18522 0.152502,-0.29694 0.231259,-0.24827 0.07876,0.0487 0.301019,-0.009 0.493917,-0.1289 0.262637,-0.1628 0.381443,-0.1681 0.473051,-0.0211 0.183914,0.29512 0.801693,-0.27129 0.952874,-0.87365 0.120948,-0.48189 0.11427,-0.48891 -0.197175,-0.20706 -0.360138,0.32592 -0.829181,0.38462 -0.919052,0.11501 -0.0324,-0.0972 -0.22925,-0.018 -0.437443,0.17593 l -0.378535,0.35266 v -1.0226 c 0,-0.58636 -0.07414,-1.02259 -0.173799,-1.02259 -0.103855,0 -0.157766,0.40601 -0.133959,1.00884 0.02191,0.55487 -0.01417,1.06287 -0.0802,1.12889 -0.06602,0.066 -0.134258,-0.74991 -0.151633,-1.81318 -0.03056,-1.87047 -0.05231,-2.52742 -0.110248,-3.33022 -0.01711,-0.23709 -0.139427,-0.38303 -0.323828,-0.38639 -0.276753,-0.005 -0.277452,-0.0197 -0.01058,-0.22259 0.338301,-0.25716 0.368347,-1.30574 0.141463,-4.93669 -0.0816,-1.3058 -0.08365,-2.63688 -0.0046,-2.96333 l 0.143572,-0.59267 -3.38e-4,0.59267 c -1.43e-4,0.32597 0.04615,1.54517 0.102878,2.70933 0.141051,2.89478 0.229347,5.14618 0.247374,6.30767 0.0092,0.59571 0.0886,0.97367 0.204424,0.97367 0.127292,0 0.160362,-0.30512 0.100945,-0.93134 -0.0486,-0.51223 -0.02508,-0.93133 0.05227,-0.93133 0.07735,0 0.165277,0.10389 0.19539,0.23088 0.03676,0.15503 0.166004,0.18962 0.393415,0.1053 0.317497,-0.11772 0.310455,-0.13874 -0.112649,-0.33619 -0.507261,-0.23671 -0.643681,-0.59163 -0.647039,-1.68335 -0.0022,-0.69741 0.01575,-0.72816 0.246304,-0.42334 0.242231,0.32026 0.248752,0.31885 0.254,-0.055 0.0051,-0.36178 0.03409,-0.35211 0.508421,0.16933 0.478543,0.52608 0.504514,0.53445 0.5334,0.17201 0.0167,-0.20955 0.03798,-0.47615 0.0473,-0.59245 0.0093,-0.11629 -0.09737,-0.21589 -0.237067,-0.22134 -0.487053,-0.019 -0.846667,-0.2832 -0.846667,-0.62206 0,-0.28201 -0.0435,-0.30519 -0.25043,-0.13345 -0.215915,0.1792 -0.248774,0.0829 -0.238413,-0.69893 0.0066,-0.49873 -0.0353,-1.65559 -0.09314,-2.5708 -0.07418,-1.17373 -0.05121,-1.63069 0.07795,-1.55086 0.105506,0.0652 0.264675,-0.10291 0.375557,-0.39668 0.126967,-0.33637 0.338913,-0.53785 0.622913,-0.59214 0.392102,-0.075 0.403217,-0.0624 0.124713,0.14129 -0.198156,0.14489 -0.286407,0.38792 -0.25078,0.6906 0.06368,0.54104 0.418277,0.74055 0.516926,0.29085 0.03688,-0.16813 0.125937,0.28434 0.197895,1.0055 0.07196,0.72117 0.212584,1.36173 0.312501,1.42348 0.117182,0.0724 0.147787,-0.0173 0.08622,-0.2527 -0.05249,-0.20074 -0.0264,-0.40765 0.05799,-0.4598 0.08439,-0.0522 0.162452,0.11921 0.173471,0.38083 l 0.02011,0.47566 0.129264,-0.508 c 0.153741,-0.6042 0.182726,-0.56301 0.268136,0.381 0.06764,0.74756 -0.07633,0.90081 -0.437469,0.46566 -0.115941,-0.1397 -0.277671,-0.254 -0.3594,-0.254 -0.261354,0 -0.1593,0.44583 0.170341,0.74415 0.261046,0.23624 0.293482,0.40152 0.178691,0.91049 -0.159685,0.70802 -0.06485,0.99001 0.105151,0.31268 0.0612,-0.24383 0.182656,-0.44332 0.269914,-0.44332 0.222383,0 -0.02613,1.20963 -0.30602,1.48952 -0.26271,0.26271 -0.312465,1.72782 -0.05868,1.72782 0.164792,0 0.200994,-0.10955 0.236738,-0.71639 0.0095,-0.16118 0.07441,-0.29453 0.144262,-0.29633 0.06985,-0.002 0.20799,-0.003 0.306978,-0.003 0.09899,0 0.158038,0.13335 0.131226,0.29633 -0.02681,0.16299 0.01141,0.39227 0.08495,0.50952 0.07354,0.11725 0.07724,0.38395 0.0082,0.59267 l -0.125473,0.37948 -0.122579,-0.42333 -0.122578,-0.42334 -0.01688,0.46567 c -0.0093,0.25612 -0.08962,0.46567 -0.178516,0.46567 -0.0889,0 0.02886,0.1905 0.261698,0.42333 0.495489,0.49549 0.610468,0.52614 0.542362,0.14457 -0.08123,-0.4551 0.299306,-0.44227 0.508634,0.0172 0.16646,0.36534 0.137141,0.48521 -0.21038,0.86019 -0.328535,0.3545 -0.377718,0.52661 -0.263896,0.92349 0.110912,0.38672 0.0906,0.46887 -0.09802,0.39649 -0.144196,-0.0553 -0.300821,0.0658 -0.397605,0.3074 -0.08783,0.21929 -0.164521,0.30345 -0.170424,0.18703 -0.01857,-0.36624 -0.348195,-0.23024 -0.557997,0.23022 -0.171537,0.37648 -0.155728,0.47523 0.106812,0.66721 0.240846,0.17611 0.378069,0.18165 0.628299,0.0254 0.176088,-0.10996 0.320157,-0.2959 0.320157,-0.4132 0,-0.1173 0.0762,-0.21327 0.169333,-0.21327 0.286101,0 0.187288,0.80355 -0.112982,0.91877 -0.220728,0.0847 -0.23766,0.15299 -0.07762,0.31303 0.160046,0.16005 0.234977,0.15572 0.343489,-0.0199 0.10414,-0.1685 0.16198,-0.13589 0.231677,0.13063 0.06309,0.24125 -0.01087,0.41072 -0.230508,0.52827 -0.177866,0.0952 -0.323393,0.29994 -0.323393,0.45499 0,0.21926 0.04516,0.23675 0.2032,0.0787 0.11176,-0.11176 0.246422,-0.2032 0.299249,-0.2032 0.07799,0 0.08781,0.8176 0.01913,1.59257 -0.0075,0.0843 -0.177614,0.008 -0.3781,-0.16933 l -0.364519,-0.32258 0.106286,0.55034 c 0.07313,0.37867 0.04158,0.55114 -0.101148,0.55292 -0.133685,0.002 -0.11713,0.063 0.04657,0.17243 0.22153,0.14813 0.216118,0.19217 -0.04233,0.34449 -0.162983,0.0961 -0.296333,0.36137 -0.296333,0.58957 0,0.32969 0.08696,0.41492 0.423333,0.41492 0.357482,0 0.423334,-0.079 0.423334,-0.508 0,-0.33324 0.08533,-0.508 0.248043,-0.508 0.395679,0 0.64463,-0.61364 0.41956,-1.03418 -0.134508,-0.25133 -0.137912,-0.40991 -0.01152,-0.53632 0.261002,-0.261 0.342506,0.058 0.487714,1.90917 0.140449,1.79042 0.05617,5.06123 -0.113761,4.41522 -0.200985,-0.76405 -0.437078,-0.52462 -0.479576,0.48636 -0.04928,1.17234 0.171042,1.90915 0.529724,1.77151 0.200946,-0.0771 0.218802,0.0196 0.100481,0.54422 -0.07914,0.35089 -0.108917,0.69458 -0.06617,0.76375 0.161587,0.26145 0.208114,6.95337 0.06754,9.71427 -0.244199,4.79613 -1.161049,7.19643 -3.729208,9.763 -1.224657,1.22389 -1.729094,1.59307 -3.058041,2.23802 -1.782658,0.86514 -4.097303,1.52985 -6.243691,1.79304 -0.790158,0.0969 -4.727548,0.17594 -8.762998,0.17594 h -7.328103 z m 27.601333,-10.00277 c 0,-0.0931 -0.0762,-0.16933 -0.169333,-0.16933 -0.09313,0 -0.169334,0.0762 -0.169334,0.16933 0,0.0931 0.0762,0.16933 0.169334,0.16933 0.09313,0 0.169333,-0.0762 0.169333,-0.16933 z m 0,-0.85666 c 0,-0.0876 -0.0762,-0.15934 -0.169333,-0.15934 -0.09313,0 -0.169334,0.1188 -0.169334,0.26399 0,0.1452 0.0762,0.2169 0.169334,0.15934 0.09313,-0.0576 0.169333,-0.17635 0.169333,-0.26399 z m -0.1109,-1.09798 c -0.05515,-0.14371 -0.136589,-0.22498 -0.180975,-0.1806 -0.04439,0.0444 -0.03048,0.16198 0.03091,0.26131 0.166971,0.27016 0.264563,0.21768 0.150063,-0.0807 z m 0.1109,-0.74938 c 0,-0.22674 -0.08123,-0.30218 -0.254,-0.23588 -0.27166,0.10424 -0.323987,0.27347 -0.141111,0.45634 0.213577,0.21358 0.395111,0.11229 0.395111,-0.22046 z m -5.08,-0.76731 c 0,-0.1397 -0.0762,-0.254 -0.169333,-0.254 -0.09313,0 -0.169334,0.1143 -0.169334,0.254 0,0.1397 0.0762,0.254 0.169334,0.254 0.09313,0 0.169333,-0.1143 0.169333,-0.254 z m 4.665257,-0.21167 c 0.07122,-0.16298 0.112376,-0.39923 0.09146,-0.52499 -0.02092,-0.12577 0.03528,-0.18335 0.124881,-0.12798 0.08961,0.0554 0.205672,-0.0107 0.25793,-0.14691 0.11152,-0.29062 -0.192823,-0.53231 -0.402818,-0.3199 -0.07945,0.0804 -0.181834,0.35441 -0.227527,0.60899 -0.04569,0.25458 -0.130947,0.54033 -0.189455,0.635 -0.05851,0.0947 -0.03384,0.17212 0.05483,0.17212 0.08867,0 0.219481,-0.13335 0.290701,-0.29633 z m -4.665257,-0.64499 c 0,-0.13421 -0.1143,-0.24401 -0.254,-0.24401 -0.284873,0 -0.296415,0.0311 -0.151591,0.40851 0.118957,0.31 0.405591,0.19374 0.405591,-0.1645 z m 3.413809,-0.58268 c 0.123674,-0.2794 0.320562,-0.508 0.437527,-0.508 0.116965,0 0.21802,-0.13335 0.224566,-0.29633 0.0097,-0.24255 0.03279,-0.25023 0.127,-0.0423 0.184946,0.40814 0.653802,0.38464 0.790291,-0.0396 0.145005,-0.45073 0.381041,-2.33106 0.292615,-2.33106 -0.152825,0 -0.544742,0.5069 -0.547067,0.70757 -0.0021,0.17835 -0.0326,0.1764 -0.150402,-0.01 -0.220303,-0.34782 -0.566882,-0.0439 -0.455591,0.39956 0.0529,0.21078 -0.0227,0.62157 -0.168015,0.91286 -0.321149,0.64375 -0.485114,0.68766 -0.335037,0.0897 0.08004,-0.31891 0.05016,-0.42005 -0.108643,-0.36773 -0.120479,0.0397 -0.243403,0.23765 -0.273163,0.4399 -0.05826,0.39592 -0.461874,0.50342 -0.585929,0.15607 -0.04158,-0.11642 -0.130302,-0.16104 -0.197165,-0.0992 -0.06686,0.0619 -0.03919,0.26642 0.06149,0.45454 0.100678,0.18812 0.183052,0.49944 0.183052,0.69183 0,0.52251 0.447662,0.42199 0.704476,-0.1582 z m 1.158191,-1.524 c 0,-0.0931 0.0762,-0.16933 0.169333,-0.16933 0.09313,0 0.169334,0.0762 0.169334,0.16933 0,0.0931 -0.0762,0.16934 -0.169334,0.16934 -0.09313,0 -0.169333,-0.0762 -0.169333,-0.16934 z m -4.826,1.016 c 0.05756,-0.0931 0.02396,-0.16933 -0.07467,-0.16933 -0.09863,0 -0.179327,0.0762 -0.179327,0.16933 0,0.0931 0.0336,0.16934 0.07467,0.16934 0.04107,0 0.121767,-0.0762 0.179327,-0.16934 z m 0.08467,-0.752 c 0,-0.0411 -0.0762,-0.12177 -0.169334,-0.17933 -0.09313,-0.0576 -0.169333,-0.024 -0.169333,0.0747 0,0.0986 0.0762,0.17933 0.169333,0.17933 0.09313,0 0.169334,-0.0336 0.169334,-0.0747 z m 3.447074,-0.85882 c -0.05406,-0.14089 -0.0099,-0.3627 0.0982,-0.49293 0.135555,-0.16333 0.14106,-0.27103 0.01775,-0.34724 -0.178984,-0.11062 -0.242788,0.004 -0.399452,0.71533 -0.05526,0.25104 -0.0045,0.381 0.148962,0.381 0.138266,0 0.19291,-0.10405 0.134537,-0.25616 z m 0.09946,-2.25562 c 0.0052,-0.12418 -0.08579,-0.19218 -0.202206,-0.15111 -0.116417,0.0411 -0.199073,0.21188 -0.183681,0.37959 0.01539,0.1677 -0.137006,0.44271 -0.338667,0.61114 -0.201659,0.16842 -0.271402,0.30876 -0.154985,0.31186 0.116416,0.003 0.202643,0.0628 0.191614,0.13263 -0.01102,0.0699 -0.0068,0.2032 0.0095,0.29633 0.03574,0.20507 0.665075,-1.26092 0.678464,-1.58044 z m 2.326467,1.12536 c -0.05405,-0.13508 -0.09418,-0.095 -0.102304,0.10231 -0.0073,0.1785 0.03267,0.27851 0.08894,0.22225 0.05627,-0.0563 0.06228,-0.20232 0.01336,-0.32456 z m -5.53434,-0.47625 c 0,-0.0931 -0.0762,-0.16933 -0.169333,-0.16933 -0.09313,0 -0.169333,0.0762 -0.169333,0.16933 0,0.0931 0.0762,0.16933 0.169333,0.16933 0.09313,0 0.169333,-0.0762 0.169333,-0.16933 z m -0.659787,-0.72752 c -0.136284,-0.13629 -0.185486,-0.0516 -0.18173,0.31265 0.0045,0.43792 0.02757,0.46097 0.18688,0.18688 0.130244,-0.22407 0.128785,-0.3656 -0.0051,-0.49953 z m 5.777691,-0.43233 c 0.01091,-0.47897 -0.03126,-0.92195 -0.0937,-0.98439 -0.259413,-0.25941 -0.35486,0.19006 -0.309699,1.45844 0.03764,1.05716 0.377622,0.65764 0.403399,-0.47405 z m -0.767224,0.18941 c -0.04293,-0.16476 -0.08088,-0.071 -0.08433,0.20844 -0.0035,0.2794 0.03168,0.4142 0.07806,0.29956 0.04638,-0.11465 0.04921,-0.34325 0.0063,-0.508 z m -0.456013,-0.25311 c 0,-0.63964 -0.08451,-0.57503 -0.227127,0.17363 -0.06651,0.34913 -0.04387,0.52008 0.06034,0.45568 0.09173,-0.0567 0.166783,-0.33988 0.166783,-0.62931 z m -5.046133,-0.20497 c 0,-0.33243 0.06858,-0.64681 0.1524,-0.69861 0.08382,-0.0518 0.1524,0.0654 0.1524,0.26043 0,0.31715 0.04026,0.3324 0.381,0.1444 0.32949,-0.1818 0.340922,-0.21862 0.08456,-0.2724 -0.227265,-0.0477 -0.270742,-0.16455 -0.186321,-0.50091 0.08911,-0.35506 0.05892,-0.4191 -0.158289,-0.33575 -0.147621,0.0566 -0.305626,0.012 -0.351119,-0.0992 -0.116679,-0.28516 -0.469699,0.23486 -0.360721,0.53136 0.04559,0.12403 0.08289,0.57488 0.08289,1.00189 0,0.427 0.04572,0.73065 0.1016,0.67477 0.05588,-0.0559 0.1016,-0.37359 0.1016,-0.70603 z m 6.824516,-0.57188 c -0.164685,-0.44311 -0.356227,-0.0367 -0.279531,0.59312 l 0.07858,0.64528 0.141803,-0.508 c 0.07799,-0.2794 0.104608,-0.60808 0.05915,-0.7304 z m -5.217037,-0.15538 c -0.04293,-0.16475 -0.08088,-0.0709 -0.08433,0.20845 -0.0035,0.2794 0.03167,0.4142 0.07806,0.29955 0.04638,-0.11464 0.04921,-0.34324 0.0063,-0.508 z m 3.261684,-0.58589 c 0.0042,-0.15749 -0.06355,-0.33034 -0.150548,-0.38411 -0.087,-0.0538 -0.113208,-0.37491 -0.05824,-0.71365 0.06841,-0.42155 0.04186,-0.58 -0.08412,-0.50213 -0.283471,0.17519 -0.404001,-0.16639 -0.136923,-0.38805 0.171634,-0.14244 0.228947,-0.58031 0.209802,-1.60285 -0.02423,-1.29424 -0.05006,-1.39205 -0.322675,-1.2218 -0.162983,0.10178 -0.296333,0.31913 -0.296333,0.48299 0,0.16387 -0.0762,0.29794 -0.169333,0.29794 -0.09313,0 -0.169334,-0.2712 -0.169334,-0.60266 0,-0.35081 -0.06941,-0.55977 -0.166089,-0.50002 -0.183161,0.1132 -0.151236,1.24216 0.04392,1.55306 0.0678,0.10801 0.07677,0.31756 0.01994,0.46567 -0.05683,0.1481 -0.02713,0.26928 0.066,0.26928 0.09313,0 0.213194,-0.1143 0.266804,-0.254 0.160319,-0.41779 0.40326,-0.28851 0.483355,0.25721 0.08325,0.56724 -0.181209,0.89286 -0.659028,0.81143 -0.185082,-0.0315 -0.308897,0.0492 -0.308897,0.20136 0,0.1397 0.09737,0.23424 0.21638,0.21009 0.275982,-0.056 0.473075,0.43819 0.259813,0.65145 -0.102369,0.10237 -0.03616,0.54357 0.180954,1.20576 l 0.342399,1.04432 0.212256,-0.49748 c 0.116742,-0.27361 0.215694,-0.62633 0.219895,-0.78381 z m 0.68497,0.43503 c 0,-0.16689 0.131304,-0.23639 0.381,-0.20167 0.368044,0.0512 0.381284,0.005 0.389384,-1.34402 0.0046,-0.76835 -0.05254,-1.397 -0.127,-1.397 -0.155037,0 -0.194471,0.4266 -0.143055,1.54757 0.01982,0.43207 -0.04655,0.83662 -0.147482,0.899 -0.100931,0.0624 -0.183514,0.0282 -0.183514,-0.0759 0,-0.10412 -0.0762,-0.14222 -0.169333,-0.0847 -0.09313,0.0576 -0.169333,0.25255 -0.169333,0.43332 0,0.18077 -0.0807,0.32868 -0.179328,0.32868 -0.09863,0 -0.131463,0.0774 -0.07297,0.17209 0.141122,0.22834 0.421626,0.0438 0.421626,-0.2774 z m -3.725333,-1.33403 c 0,-0.23283 0.0762,-0.42333 0.169333,-0.42333 0.207684,0 0.225584,-0.88668 0.02239,-1.10913 -0.08082,-0.0885 -0.190167,-0.39328 -0.242995,-0.67734 -0.07148,-0.38436 -0.01834,-0.56501 0.207748,-0.7062 0.16709,-0.10435 0.354919,-0.44344 0.417395,-0.75353 0.07896,-0.39188 0.156413,-0.49506 0.254018,-0.33838 0.0935,0.15008 0.179441,-0.0186 0.25717,-0.50467 0.06421,-0.40154 0.170189,-0.64769 0.235509,-0.54699 0.06532,0.10071 0.317832,0.21999 0.56114,0.26507 0.554608,0.10276 0.746865,-0.1834 0.907395,-1.35059 0.06674,-0.48523 0.19039,-0.88224 0.274784,-0.88224 0.321474,0 0.132242,-0.43194 -0.271211,-0.61907 -0.342497,-0.15885 -0.422013,-0.15088 -0.422013,0.0423 0,0.13093 0.1143,0.23806 0.254,0.23806 0.332461,0 0.320784,0.15331 -0.04233,0.55581 -0.162983,0.18066 -0.296333,0.56103 -0.296333,0.84527 0,0.28424 -0.09525,0.54883 -0.211667,0.58798 -0.124374,0.0418 -0.211667,-0.0743 -0.211667,-0.28161 0,-0.19403 -0.0762,-0.35278 -0.169333,-0.35278 -0.09313,0 -0.169333,0.1524 -0.169333,0.33867 0,0.37478 -0.261959,0.45882 -0.395854,0.127 -0.04698,-0.11642 -0.09143,-0.002 -0.09878,0.254 -0.0073,0.25611 -0.07097,0.46566 -0.141367,0.46566 -0.0704,0 -0.228351,0.22672 -0.351007,0.50382 -0.16031,0.36216 -0.326663,0.49309 -0.59167,0.46567 -0.341562,-0.0353 -0.366572,0.0303 -0.340268,0.89318 0.08507,2.79075 0.130163,3.38667 0.256243,3.38667 0.07628,0 0.1387,-0.1905 0.1387,-0.42334 z m -1.411854,-0.29633 c -0.04698,-0.11642 -0.08541,-0.0212 -0.08541,0.21167 0,0.23283 0.03843,0.32808 0.08541,0.21166 0.04698,-0.11641 0.04698,-0.30691 0,-0.42333 z m 5.151037,0.381 c 0.08552,0 0.155483,-0.1905 0.155483,-0.42333 0,-0.47373 -0.05148,-0.49832 -0.519132,-0.24805 -0.405384,0.21696 -0.460192,0.92785 -0.05969,0.77416 0.147317,-0.0565 0.337817,-0.10278 0.423334,-0.10278 z m 0.832817,-2.80399 c 0,-0.24577 -0.07329,-0.38803 -0.169334,-0.32868 -0.09313,0.0576 -0.169333,0.25256 -0.169333,0.43333 0,0.18077 0.0762,0.32867 0.169333,0.32867 0.09313,0 0.169334,-0.19499 0.169334,-0.43332 z m 0.846666,-0.41334 c 0,-0.0931 -0.0807,-0.16934 -0.179327,-0.16934 -0.09863,0 -0.132232,0.0762 -0.07467,0.16934 0.05756,0.0931 0.138258,0.16933 0.179328,0.16933 0.04107,0 0.07467,-0.0762 0.07467,-0.16933 z m -5.418666,-2.20134 c 0,-0.0931 -0.0762,-0.16933 -0.169334,-0.16933 -0.09313,0 -0.169333,0.0762 -0.169333,0.16933 0,0.0931 0.0762,0.16934 0.169333,0.16934 0.09313,0 0.169334,-0.0762 0.169334,-0.16934 z m 0.677333,-0.33866 c 0,-0.22219 -0.112889,-0.33867 -0.328212,-0.33867 -0.249919,0 -0.320609,-0.10667 -0.296333,-0.44717 0.01753,-0.24595 -0.06337,-0.4809 -0.179788,-0.52211 -0.137817,-0.0488 -0.211667,0.0959 -0.211667,0.4148 0,0.64897 0.280032,0.9994 0.973667,1.21844 0.02328,0.007 0.04233,-0.13903 0.04233,-0.32529 z m 3.163673,-1.55575 c -0.05405,-0.13509 -0.09418,-0.095 -0.102304,0.1023 -0.0073,0.17851 0.03267,0.27852 0.08894,0.22225 0.05627,-0.0563 0.06228,-0.20232 0.01336,-0.32455 z m -2.147673,-0.0629 c 0,-0.1452 -0.0762,-0.2169 -0.169333,-0.15934 -0.09313,0.0576 -0.169334,0.17635 -0.169334,0.26399 0,0.0876 0.0762,0.15934 0.169334,0.15934 0.09313,0 0.169333,-0.1188 0.169333,-0.26399 z m 1.758688,-0.67808 c 0.05587,-0.1456 0.17034,-0.22224 0.254372,-0.1703 0.139576,0.0863 0.357607,-0.25914 0.357607,-0.56651 0,-0.13158 -0.620922,-0.13479 -0.734729,-0.004 -0.03536,0.0407 -0.114566,0.28356 -0.17601,0.53967 -0.117741,0.4908 0.124905,0.654 0.29876,0.20094 z m -0.234688,-3.9686 c 0,-0.18626 -0.10795,-0.33866 -0.239889,-0.33866 -0.131938,0 -0.278323,-0.0952 -0.325298,-0.21167 -0.04698,-0.11642 -0.09143,-0.0357 -0.09878,0.17933 -0.0076,0.22189 0.06038,0.34541 0.157159,0.2856 0.09379,-0.058 0.216244,0.0137 0.272117,0.15934 0.139011,0.36225 0.234688,0.33211 0.234688,-0.0739 z m -0.846667,-5.92666 c 0,-0.2794 -0.0762,-0.508 -0.169333,-0.508 -0.09313,0 -0.169333,0.2286 -0.169333,0.508 0,0.2794 0.0762,0.508 0.169333,0.508 0.09313,0 0.169333,-0.2286 0.169333,-0.508 z m -1.238993,-4.09575 c -0.05405,-0.13509 -0.09418,-0.095 -0.102304,0.1023 -0.0073,0.17851 0.03267,0.27852 0.08894,0.22225 0.05627,-0.0563 0.06228,-0.20232 0.01336,-0.32455 z m 4.286993,22.65773 c 0,-0.32596 0.0762,-0.63976 0.169334,-0.69732 0.100568,-0.0621 0.169333,0.13603 0.169333,0.48802 0,0.32596 -0.0762,0.63976 -0.169333,0.69732 -0.100569,0.0621 -0.169334,-0.13603 -0.169334,-0.48802 z m -7.078988,-5.94665 c 0.0035,-0.2794 0.0414,-0.3732 0.08434,-0.20844 0.04293,0.16475 0.04011,0.39335 -0.0063,0.508 -0.04639,0.11464 -0.08151,-0.0202 -0.07806,-0.29956 z m -0.522458,-1.87113 c -0.01021,-0.19093 -0.106764,-0.43535 -0.214577,-0.54316 -0.148475,-0.14848 -0.145082,-0.2574 0.01399,-0.44907 0.115507,-0.13918 0.160482,-0.40911 0.09994,-0.59985 -0.06314,-0.19896 -0.03439,-0.34679 0.06745,-0.34679 0.279861,0 0.37327,0.69268 0.205513,1.524 -0.08457,0.4191 -0.162118,0.60579 -0.172322,0.41487 z m 0.997446,-0.32021 c 0,-0.1342 0.0762,-0.2911 0.169334,-0.34866 0.09313,-0.0576 0.169333,0.0522 0.169333,0.24401 0,0.19176 -0.0762,0.34866 -0.169333,0.34866 -0.09313,0 -0.169334,-0.10981 -0.169334,-0.24401 z m 6.265334,-1.27967 c 0,-0.34118 0.353116,-0.84699 0.5913,-0.84699 0.05912,0 0.08361,0.24702 0.05443,0.54895 -0.06244,0.64594 -0.645729,0.91516 -0.64573,0.29804 z m -2.910417,0.0533 c 0.122237,-0.0489 0.268288,-0.0429 0.324556,0.0134 0.05627,0.0563 -0.04375,0.0963 -0.22225,0.0889 -0.197265,-0.008 -0.237388,-0.0482 -0.102306,-0.1023 z m 3.249083,-2.08566 c 0,-0.0931 0.0807,-0.16934 0.179328,-0.16934 0.09863,0 0.132232,0.0762 0.07467,0.16934 -0.05756,0.0931 -0.138257,0.16933 -0.179327,0.16933 -0.04107,0 -0.07467,-0.0762 -0.07467,-0.16933 z m -7.750048,-4.064 c 0,-0.32597 0.03485,-0.45932 0.07744,-0.29634 0.04259,0.16299 0.04259,0.42969 0,0.59267 -0.04259,0.16298 -0.07744,0.0296 -0.07744,-0.29633 z m 2.274938,-1.29823 c -0.06209,-0.0621 -0.11289,-0.19162 -0.11289,-0.28786 0,-0.10611 0.07887,-0.0961 0.200378,0.0254 0.110208,0.11021 0.161008,0.23975 0.112889,0.28786 -0.04812,0.0481 -0.138289,0.0367 -0.200377,-0.0254 z m -0.338667,-4.74133 c -0.06209,-0.0621 -0.112889,-0.30593 -0.112889,-0.54187 0,-0.48199 0.23392,-0.32795 0.415711,0.27376 0.109317,0.36182 -0.05958,0.51136 -0.302822,0.26811 z m 3.791314,-0.56444 c -0.168092,-0.90086 -0.167574,-1.41111 0.0012,-1.24227 0.0999,0.0999 0.151148,0.47743 0.113883,0.83895 -0.03726,0.36153 -0.08908,0.54302 -0.115147,0.40332 z m -0.68687,-1.44933 c 0,-0.1452 0.0762,-0.2169 0.169333,-0.15934 0.09313,0.0576 0.169334,0.17636 0.169334,0.26399 0,0.0876 -0.0762,0.15934 -0.169334,0.15934 -0.09313,0 -0.169333,-0.11879 -0.169333,-0.26399 z m -1.439333,-1.09067 c -0.05756,-0.0931 -0.02396,-0.16934 0.07467,-0.16934 0.09863,0 0.179328,0.0762 0.179328,0.16934 0,0.0931 -0.0336,0.16933 -0.07467,0.16933 -0.04107,0 -0.121768,-0.0762 -0.179328,-0.16933 z"
           style="fill:#ffffffff;fill-opacity:1;stroke-width:0.16933334" />
      </g>
   
    </g>
  </g>
</svg>
